<svg width="271" height="50" viewBox="0 0 271 50" fill="none" xmlns="http://www.w3.org/2000/svg">
<path d="M52.5696 8.64705C47.9137 8.64705 44.1393 12.5185 44.1393 17.2941C44.1393 19.5216 44.9647 21.5436 46.311 23.0725L32.5114 38.2706C32.2951 38.1884 32.0787 38.1226 31.8543 38.0651V17.1708C35.8611 16.505 38.9304 12.9459 38.9304 8.64705C38.9304 3.87145 35.1559 0 30.5 0C25.8441 0 22.0696 3.87145 22.0696 8.64705C22.0696 12.9459 25.1308 16.505 29.1457 17.1708V38.0651C28.9213 38.1226 28.7049 38.1884 28.4886 38.2706L14.689 23.0725C16.0353 21.5436 16.8607 19.5216 16.8607 17.2941C16.8607 12.5185 13.0863 8.64705 8.43037 8.64705C3.77444 8.64705 0 12.5185 0 17.2941C0 22.0697 3.77444 25.9411 8.43037 25.9411C9.93694 25.9411 11.3473 25.5302 12.5654 24.8233L26.1887 39.8323C25.203 40.9091 24.6019 42.3557 24.6019 43.9504C24.6019 47.2957 27.2465 50 30.5 50C33.7535 50 36.3981 47.2875 36.3981 43.9504C36.3981 42.3557 35.789 40.9091 34.8114 39.8323L48.4346 24.8233C49.6607 25.5302 51.0631 25.9411 52.5696 25.9411C57.2256 25.9411 61 22.0697 61 17.2941C61 12.5185 57.2256 8.64705 52.5696 8.64705Z" fill="url(#paint0_linear_604_3189)"/>
<path d="M79.9316 34.5V14.7715H83.459V22.9746H93.0566V14.7715H96.5703V34.5H93.0566V25.9414H83.459V34.5H79.9316ZM103.639 34.7461C102.682 34.7461 101.834 34.5638 101.096 34.1992C100.367 33.8255 99.7969 33.3105 99.3867 32.6543C98.9857 31.9889 98.7852 31.2279 98.7852 30.3711V30.3438C98.7852 29.4779 98.9993 28.7396 99.4277 28.1289C99.8652 27.5091 100.494 27.0215 101.314 26.666C102.135 26.3014 103.128 26.0827 104.295 26.0098L109.832 25.668V27.9238L104.773 28.2383C103.935 28.293 103.292 28.4935 102.846 28.8398C102.399 29.1862 102.176 29.6465 102.176 30.2207V30.2344C102.176 30.8268 102.399 31.2962 102.846 31.6426C103.301 31.9798 103.903 32.1484 104.65 32.1484C105.307 32.1484 105.89 32.0163 106.4 31.752C106.92 31.4876 107.33 31.1276 107.631 30.6719C107.932 30.2161 108.082 29.7012 108.082 29.127V24.7793C108.082 24.0501 107.85 23.4759 107.385 23.0566C106.929 22.6283 106.268 22.4141 105.402 22.4141C104.6 22.4141 103.958 22.5872 103.475 22.9336C102.992 23.2708 102.691 23.7083 102.572 24.2461L102.545 24.3691H99.4004L99.4141 24.2051C99.487 23.3483 99.7741 22.5827 100.275 21.9082C100.777 21.2246 101.469 20.6868 102.354 20.2949C103.247 19.903 104.304 19.707 105.525 19.707C106.738 19.707 107.786 19.9076 108.67 20.3086C109.563 20.7096 110.251 21.2702 110.734 21.9902C111.227 22.7103 111.473 23.5579 111.473 24.5332V34.5H108.082V32.2715H108C107.727 32.7728 107.371 33.2103 106.934 33.584C106.496 33.9577 105.995 34.2448 105.43 34.4453C104.874 34.6458 104.277 34.7461 103.639 34.7461ZM114.234 34.5V20.0078H117.625V22.2773H117.707C118.081 21.4935 118.637 20.8691 119.375 20.4043C120.122 19.9395 121.043 19.707 122.137 19.707C123.732 19.707 124.962 20.1901 125.828 21.1562C126.703 22.1224 127.141 23.444 127.141 25.1211V34.5H123.736V25.8047C123.736 24.7747 123.495 23.9818 123.012 23.4258C122.529 22.8607 121.804 22.5781 120.838 22.5781C120.191 22.5781 119.626 22.7285 119.143 23.0293C118.66 23.321 118.286 23.7311 118.021 24.2598C117.757 24.7793 117.625 25.39 117.625 26.0918V34.5H114.234ZM135.262 34.7871C134.04 34.7871 132.979 34.4863 132.076 33.8848C131.183 33.2741 130.49 32.4036 129.998 31.2734C129.515 30.1432 129.273 28.8034 129.273 27.2539V27.2402C129.273 25.6816 129.52 24.3418 130.012 23.2207C130.504 22.0905 131.197 21.2246 132.09 20.623C132.983 20.0124 134.036 19.707 135.248 19.707C135.941 19.707 136.574 19.821 137.148 20.0488C137.732 20.2676 138.247 20.5866 138.693 21.0059C139.14 21.416 139.5 21.9128 139.773 22.4961H139.855V14.7715H143.246V34.5H139.855V32.0391H139.773C139.509 32.6133 139.154 33.1055 138.707 33.5156C138.27 33.9167 137.759 34.2311 137.176 34.459C136.602 34.6777 135.964 34.7871 135.262 34.7871ZM136.287 31.9297C136.989 31.9297 137.609 31.7383 138.146 31.3555C138.684 30.9727 139.104 30.4303 139.404 29.7285C139.705 29.0267 139.855 28.2018 139.855 27.2539V27.2402C139.855 26.2923 139.701 25.472 139.391 24.7793C139.09 24.0775 138.671 23.5352 138.133 23.1523C137.604 22.7695 136.989 22.5781 136.287 22.5781C135.558 22.5781 134.924 22.7695 134.387 23.1523C133.858 23.526 133.448 24.0592 133.156 24.752C132.874 25.4447 132.732 26.2741 132.732 27.2402V27.2539C132.732 28.2109 132.874 29.0404 133.156 29.7422C133.448 30.444 133.858 30.9863 134.387 31.3691C134.924 31.7428 135.558 31.9297 136.287 31.9297ZM148.059 39.3125C147.73 39.3125 147.407 39.2943 147.088 39.2578C146.778 39.2305 146.518 39.1986 146.309 39.1621V36.5781C146.436 36.5964 146.596 36.6191 146.787 36.6465C146.979 36.6738 147.197 36.6875 147.443 36.6875C148.1 36.6875 148.619 36.5736 149.002 36.3457C149.385 36.127 149.686 35.7122 149.904 35.1016L150.109 34.5137L144.9 20.0078H148.605L152.215 32.3125L151.695 31.6016H152.42L151.9 32.3125L155.51 20.0078H159.092L153.869 34.9922C153.505 36.0495 153.062 36.8926 152.543 37.5215C152.023 38.1595 151.395 38.6152 150.656 38.8887C149.927 39.1712 149.061 39.3125 148.059 39.3125ZM175.225 34.8418C173.338 34.8418 171.697 34.4271 170.303 33.5977C168.917 32.7682 167.846 31.5924 167.09 30.0703C166.342 28.5391 165.969 26.7253 165.969 24.6289V24.6152C165.969 22.5189 166.347 20.7096 167.104 19.1875C167.86 17.6654 168.931 16.4941 170.316 15.6738C171.702 14.8444 173.338 14.4297 175.225 14.4297C176.738 14.4297 178.091 14.7214 179.285 15.3047C180.488 15.888 181.468 16.6947 182.225 17.7246C182.981 18.7546 183.446 19.9395 183.619 21.2793L183.633 21.416H180.174L180.105 21.1562C179.914 20.3997 179.6 19.748 179.162 19.2012C178.725 18.6543 178.173 18.2305 177.508 17.9297C176.842 17.6289 176.081 17.4785 175.225 17.4785C174.076 17.4785 173.078 17.7702 172.23 18.3535C171.383 18.9368 170.727 19.7617 170.262 20.8281C169.797 21.8854 169.564 23.1478 169.564 24.6152V24.6289C169.564 26.0872 169.797 27.3542 170.262 28.4297C170.727 29.4961 171.383 30.3255 172.23 30.918C173.087 31.5013 174.085 31.793 175.225 31.793C176.063 31.793 176.811 31.6471 177.467 31.3555C178.132 31.0547 178.693 30.6217 179.148 30.0566C179.604 29.4915 179.937 28.8034 180.146 27.9922L180.188 27.8555H183.646L183.619 28.0059C183.455 29.3457 182.995 30.5306 182.238 31.5605C181.482 32.5905 180.502 33.3971 179.299 33.9805C178.096 34.5547 176.738 34.8418 175.225 34.8418ZM192.396 34.7871C190.975 34.7871 189.74 34.4863 188.691 33.8848C187.643 33.2741 186.827 32.4082 186.244 31.2871C185.67 30.1569 185.383 28.8125 185.383 27.2539V27.2266C185.383 25.6771 185.674 24.3418 186.258 23.2207C186.841 22.0905 187.657 21.2246 188.705 20.623C189.753 20.0124 190.979 19.707 192.383 19.707C193.796 19.707 195.026 20.0124 196.074 20.623C197.132 21.2246 197.952 22.0859 198.535 23.207C199.118 24.3281 199.41 25.668 199.41 27.2266V27.2539C199.41 28.8216 199.118 30.1706 198.535 31.3008C197.961 32.4219 197.15 33.2832 196.102 33.8848C195.053 34.4863 193.818 34.7871 192.396 34.7871ZM192.41 32.0391C193.13 32.0391 193.755 31.8522 194.283 31.4785C194.812 31.1048 195.217 30.5625 195.5 29.8516C195.792 29.1315 195.938 28.2656 195.938 27.2539V27.2266C195.938 26.224 195.792 25.3672 195.5 24.6562C195.208 23.9453 194.794 23.403 194.256 23.0293C193.727 22.6556 193.103 22.4688 192.383 22.4688C191.681 22.4688 191.061 22.6556 190.523 23.0293C189.995 23.403 189.58 23.9453 189.279 24.6562C188.988 25.3672 188.842 26.224 188.842 27.2266V27.2539C188.842 28.2656 188.988 29.1315 189.279 29.8516C189.58 30.5625 189.995 31.1048 190.523 31.4785C191.061 31.8522 191.69 32.0391 192.41 32.0391ZM201.598 34.5V20.0078H204.988V22.2773H205.07C205.444 21.4935 206 20.8691 206.738 20.4043C207.486 19.9395 208.406 19.707 209.5 19.707C211.095 19.707 212.326 20.1901 213.191 21.1562C214.066 22.1224 214.504 23.444 214.504 25.1211V34.5H211.1V25.8047C211.1 24.7747 210.858 23.9818 210.375 23.4258C209.892 22.8607 209.167 22.5781 208.201 22.5781C207.554 22.5781 206.989 22.7285 206.506 23.0293C206.023 23.321 205.649 23.7311 205.385 24.2598C205.12 24.7793 204.988 25.39 204.988 26.0918V34.5H201.598ZM217.238 34.5V20.0078H220.629V22.2773H220.711C221.085 21.4935 221.641 20.8691 222.379 20.4043C223.126 19.9395 224.047 19.707 225.141 19.707C226.736 19.707 227.966 20.1901 228.832 21.1562C229.707 22.1224 230.145 23.444 230.145 25.1211V34.5H226.74V25.8047C226.74 24.7747 226.499 23.9818 226.016 23.4258C225.533 22.8607 224.808 22.5781 223.842 22.5781C223.195 22.5781 222.63 22.7285 222.146 23.0293C221.663 23.321 221.29 23.7311 221.025 24.2598C220.761 24.7793 220.629 25.39 220.629 26.0918V34.5H217.238ZM239.25 34.7871C237.801 34.7871 236.552 34.4818 235.504 33.8711C234.465 33.2604 233.667 32.3945 233.111 31.2734C232.555 30.1523 232.277 28.8262 232.277 27.2949V27.2812C232.277 25.7591 232.555 24.4329 233.111 23.3027C233.676 22.1634 234.465 21.2793 235.477 20.6504C236.497 20.0215 237.701 19.707 239.086 19.707C240.462 19.707 241.652 20.0124 242.654 20.623C243.666 21.2246 244.441 22.0723 244.979 23.166C245.525 24.2598 245.799 25.5358 245.799 26.9941V28.0879H233.959V25.8184H244.172L242.531 27.9375V26.625C242.531 25.6771 242.385 24.8887 242.094 24.2598C241.802 23.6309 241.401 23.1615 240.891 22.8516C240.38 22.5326 239.792 22.373 239.127 22.373C238.452 22.373 237.851 22.5371 237.322 22.8652C236.803 23.1842 236.393 23.6628 236.092 24.3008C235.8 24.9388 235.654 25.7135 235.654 26.625V27.9375C235.654 28.8216 235.8 29.5781 236.092 30.207C236.393 30.8268 236.816 31.3053 237.363 31.6426C237.91 31.9707 238.562 32.1348 239.318 32.1348C239.883 32.1348 240.38 32.0482 240.809 31.875C241.237 31.6927 241.588 31.4603 241.861 31.1777C242.144 30.8952 242.34 30.5898 242.449 30.2617L242.477 30.166H245.648L245.621 30.3164C245.503 30.8724 245.284 31.4193 244.965 31.957C244.646 32.4857 244.217 32.9642 243.68 33.3926C243.142 33.821 242.504 34.1628 241.766 34.418C241.027 34.6641 240.189 34.7871 239.25 34.7871ZM254.371 34.7871C252.94 34.7871 251.701 34.4818 250.652 33.8711C249.604 33.2604 248.793 32.39 248.219 31.2598C247.654 30.1296 247.371 28.7897 247.371 27.2402V27.2266C247.371 25.6862 247.658 24.3555 248.232 23.2344C248.807 22.1042 249.613 21.2337 250.652 20.623C251.701 20.0124 252.926 19.707 254.33 19.707C255.606 19.707 256.709 19.9531 257.639 20.4453C258.568 20.9284 259.298 21.571 259.826 22.373C260.355 23.1751 260.656 24.0592 260.729 25.0254V25.1211H257.529L257.502 25.0117C257.365 24.3099 257.033 23.7129 256.504 23.2207C255.984 22.7194 255.273 22.4688 254.371 22.4688C253.66 22.4688 253.036 22.6647 252.498 23.0566C251.969 23.4395 251.559 23.9863 251.268 24.6973C250.976 25.4082 250.83 26.2604 250.83 27.2539V27.2676C250.83 28.2702 250.976 29.127 251.268 29.8379C251.568 30.5488 251.983 31.0957 252.512 31.4785C253.049 31.8522 253.674 32.0391 254.385 32.0391C255.251 32.0391 255.948 31.8066 256.477 31.3418C257.014 30.8678 257.361 30.2526 257.516 29.4961L257.543 29.373H260.756L260.742 29.4688C260.651 30.4714 260.332 31.3737 259.785 32.1758C259.238 32.9779 258.505 33.6159 257.584 34.0898C256.663 34.5547 255.592 34.7871 254.371 34.7871ZM268.166 34.7871C266.662 34.7871 265.541 34.459 264.803 33.8027C264.074 33.1465 263.709 32.071 263.709 30.5762V22.6328H261.658V20.0078H263.709V16.3301H267.168V20.0078H269.861V22.6328H267.168V30.3027C267.168 31.0046 267.323 31.4922 267.633 31.7656C267.952 32.0299 268.417 32.1621 269.027 32.1621C269.201 32.1621 269.351 32.1576 269.479 32.1484C269.615 32.1302 269.743 32.1165 269.861 32.1074V34.6641C269.661 34.6914 269.415 34.7188 269.123 34.7461C268.84 34.7734 268.521 34.7871 268.166 34.7871Z" fill="black"/>
<defs>
<linearGradient id="paint0_linear_604_3189" x1="27.3506" y1="-10.8417" x2="35.2619" y2="56.3823" gradientUnits="userSpaceOnUse">
<stop stop-color="#F9C104"/>
<stop offset="0.27" stop-color="#F8C107"/>
<stop offset="0.67" stop-color="#FBC304"/>
<stop offset="1" stop-color="#FFFAF0"/>
</linearGradient>
</defs>
</svg>
